<svg width="41" height="40" viewBox="0 0 41 40" fill="none" xmlns="http://www.w3.org/2000/svg">
<path d="M20.9443 6.66667C27.7443 6.66667 33.3609 11.75 34.1776 18.3333H27.4109C26.6609 15.45 24.0443 13.3333 20.9443 13.3333C17.8443 13.3333 15.2276 15.45 14.4943 18.3333H7.71094C8.5276 11.75 14.1443 6.66667 20.9443 6.66667Z" fill="#EF171C"/>
<path d="M20.9445 3.33333C11.7445 3.33333 4.27783 10.8 4.27783 20C4.27783 29.2 11.7445 36.6667 20.9445 36.6667C30.1445 36.6667 37.6112 29.2 37.6112 20C37.6112 10.8 30.1445 3.33333 20.9445 3.33333ZM20.9445 6.66666C27.7445 6.66666 33.3612 11.75 34.1778 18.3333H27.4112C26.6612 15.45 24.0445 13.3333 20.9445 13.3333C17.8445 13.3333 15.2278 15.45 14.4945 18.3333H7.71117C8.52783 11.75 14.1445 6.66666 20.9445 6.66666ZM24.2778 20C24.2778 21.8333 22.7778 23.3333 20.9445 23.3333C19.1112 23.3333 17.6112 21.8333 17.6112 20C17.6112 18.1667 19.1112 16.6667 20.9445 16.6667C22.7778 16.6667 24.2778 18.1667 24.2778 20ZM20.9445 33.3333C14.1445 33.3333 8.52783 28.25 7.71117 21.6667H14.4778C15.2112 24.55 17.8278 26.6667 20.9278 26.6667C24.0278 26.6667 26.6445 24.55 27.3778 21.6667H34.1445C33.3612 28.25 27.7445 33.3333 20.9445 33.3333Z" fill="#181D27"/>
</svg>
